<?xml version="1.0" standalone="no"?>
<!DOCTYPE svg PUBLIC "-//W3C//DTD SVG 20010904//EN"
 "http://www.w3.org/TR/2001/REC-SVG-20010904/DTD/svg10.dtd">
<svg version="1.0" xmlns="http://www.w3.org/2000/svg"
 width="801.000000pt" height="542.000000pt" viewBox="0 0 801.000000 542.000000"
 preserveAspectRatio="xMidYMid meet">

<g transform="translate(0.000000,542.000000) scale(0.100000,-0.100000)"
fill="#000000" stroke="none">
<path d="M0 2710 l0 -2710 4005 0 4005 0 0 2710 0 2710 -4005 0 -4005 0 0
-2710z m3808 1468 c7 -7 12 -31 12 -55 l0 -43 53 0 c71 0 98 -28 61 -64 -12
-13 -39 -16 -123 -16 -90 0 -110 -3 -124 -17 -19 -23 -23 -41 -14 -74 9 -35
45 -49 128 -49 42 0 81 -6 99 -15 122 -63 94 -250 -41 -271 -38 -6 -39 -7 -39
-50 0 -34 -5 -46 -21 -54 -31 -17 -59 12 -59 62 l0 38 -55 0 c-43 0 -56 4 -65
19 -13 25 -13 27 6 45 12 13 39 16 124 16 99 0 111 2 130 22 27 29 25 64 -5
93 -21 22 -33 25 -101 25 -126 0 -184 46 -184 145 0 78 59 145 129 145 18 0
21 6 21 39 0 57 38 89 68 59z m540 -658 c41 -7 149 -48 310 -117 136 -59 253
-111 261 -117 26 -20 7 -131 -38 -222 -37 -75 -115 -174 -137 -174 -5 0 -72
40 -148 88 l-139 88 -260 -78 c-143 -43 -274 -78 -292 -78 -17 0 -54 7 -81 15
-64 20 -714 375 -728 398 -18 28 22 87 79 116 59 31 74 28 359 -64 167 -53
206 -69 211 -86 5 -14 1 -27 -9 -37 -19 -20 -31 -17 -314 73 -159 51 -186 56
-209 46 -14 -6 -24 -13 -22 -15 2 -2 151 -83 331 -180 293 -159 331 -177 375
-177 32 -1 135 25 302 75 140 42 261 76 268 76 7 0 69 -36 138 -80 69 -44 129
-80 133 -80 25 0 100 142 108 203 l6 42 -223 97 c-261 112 -295 122 -392 115
-61 -4 -93 -14 -207 -67 -74 -34 -139 -66 -145 -71 -17 -17 25 -39 74 -39 25
0 86 7 136 14 100 15 111 13 121 -16 10 -34 -18 -49 -117 -64 -122 -18 -193
-18 -233 1 -55 26 -97 126 -63 152 23 18 327 153 365 162 52 12 106 13 180 1z
m-568 -1260 l0 -169 35 24 c56 37 100 48 184 43 140 -8 261 -88 317 -211 27
-57 29 -71 29 -182 0 -109 -2 -125 -27 -177 -37 -79 -98 -142 -177 -181 -60
-29 -74 -32 -161 -32 -99 0 -130 9 -177 55 l-23 21 0 -36 0 -35 -120 0 -120 0
0 518 c0 285 3 522 7 525 3 4 57 7 120 7 l113 0 0 -170z m930 -355 l0 -525
-115 0 -115 0 0 525 0 525 115 0 115 0 0 -525z m390 425 l0 -100 -120 0 -120
0 0 100 0 100 120 0 120 0 0 -100z m1210 0 l0 -100 -120 0 -120 0 0 93 c0 52
3 97 7 100 3 4 57 7 120 7 l113 0 0 -100z m-4007 -205 c76 -38 158 -126 188
-202 18 -45 23 -79 23 -153 1 -107 -15 -169 -66 -244 -103 -157 -362 -206
-485 -93 l-23 20 0 -176 0 -177 -115 0 -115 0 0 525 0 525 115 0 115 0 0 -30
c0 -35 6 -37 35 -10 38 36 94 50 185 47 70 -3 96 -9 143 -32z m3492 2 c59 -28
155 -115 155 -142 0 -6 -40 -30 -89 -53 -78 -35 -92 -38 -102 -26 -37 45 -141
60 -207 29 -71 -33 -111 -117 -98 -206 8 -57 61 -123 112 -139 51 -17 134 -8
171 18 17 12 36 22 43 22 7 0 50 -18 97 -40 l86 -40 -35 -42 c-144 -177 -416
-185 -592 -18 -34 32 -64 73 -82 113 -25 55 -29 73 -29 162 0 89 3 107 28 160
46 98 133 177 241 216 80 29 222 23 301 -14z m-2925 -209 c0 -131 5 -249 11
-271 28 -102 173 -92 247 17 l32 48 0 219 0 219 120 0 120 0 0 -385 0 -385
-120 0 -120 0 0 60 0 61 -31 -36 c-74 -84 -191 -116 -299 -80 -73 24 -140 92
-170 170 -22 56 -24 78 -28 328 l-4 267 121 0 121 0 0 -232z m2230 -153 l0
-385 -120 0 -120 0 0 385 0 385 120 0 120 0 0 -385z m1210 0 l0 -386 -117 3
-118 3 -3 383 -2 382 120 0 120 0 0 -385z"/>
<path d="M3907 1949 c-52 -8 -87 -36 -115 -90 -19 -36 -23 -55 -19 -106 9
-126 91 -194 207 -173 106 19 166 126 135 242 -24 96 -105 145 -208 127z"/>
<path d="M2070 1950 c-85 -16 -134 -84 -132 -187 1 -115 65 -186 166 -186 109
0 175 63 183 175 4 53 1 70 -19 108 -37 69 -118 105 -198 90z"/>
</g>
</svg>
